<svg width="242" height="242" viewBox="0 0 242 242" fill="none" xmlns="http://www.w3.org/2000/svg">
<g opacity="0.4">
<g opacity="0.4">
<path fill-rule="evenodd" clip-rule="evenodd" d="M152.401 16.3938C147.97 11.9438 141.892 9.53012 135.615 9.7277C129.338 9.92527 123.424 12.7164 119.281 17.4363L17.1157 119.602C12.3958 123.744 9.60461 129.659 9.40704 135.935C9.20946 142.212 11.6231 148.29 16.0731 152.721L84.7181 221.366C96.1264 232.954 114.746 233.168 126.418 221.848L153.283 194.983L157.212 198.912C160.084 202.169 162.048 206.124 162.906 210.38C167.404 229.43 184.724 242.655 204.285 241.976C224.649 241.429 241.028 225.05 241.575 204.686C242.11 193.267 237.766 182.159 229.626 174.133C224.444 168.641 217.835 164.698 210.541 162.746C206.01 161.946 201.806 159.858 198.431 156.731L194.101 153.844L222.409 126.98C233.73 115.307 233.515 96.6877 221.928 85.2794L212.866 76.2176L152.401 16.3938ZM28.6634 140.131C27.4605 138.928 25.2151 136.683 29.7059 132.192L131.871 30.0266C136.362 25.5358 138.608 27.7812 139.811 28.9841L187.365 76.5384L76.2177 187.685L28.6634 140.131ZM210.781 114.87C215.009 109.798 214.552 102.31 209.739 97.7894L200.516 88.5673L88.2466 200.837L96.747 209.338C99.0358 211.755 102.196 213.158 105.525 213.234C108.853 213.309 112.074 212.05 114.47 209.739L141.896 182.313C148.374 176.098 158.653 176.277 164.911 182.714L168.84 186.643C174.192 192.255 177.86 199.257 179.426 206.852C180.481 211.205 182.73 215.176 185.921 218.319C190.682 223.071 197.251 225.553 203.965 225.135C215.279 224.366 224.286 215.359 225.055 204.045C225.326 197.38 222.762 190.912 217.998 186.242C214.949 182.97 211.069 180.586 206.771 179.345C199.202 177.823 192.221 174.18 186.643 168.84L182.714 164.911C179.594 161.877 177.815 157.724 177.77 153.373C177.724 149.022 179.417 144.833 182.473 141.735L210.781 114.87Z" fill="#7D4AFF"/>
<path d="M45.0234 125.535C41.7017 128.857 41.7017 134.243 45.0234 137.564L72.8502 165.391C76.1719 168.713 81.5575 168.713 84.8792 165.391C88.2008 162.07 88.2008 156.684 84.8792 153.362L57.0523 125.535C53.7054 122.275 48.3702 122.275 45.0234 125.535Z" fill="#7D4AFF"/>
<path d="M69.0812 101.478C65.8207 104.824 65.8207 110.16 69.0812 113.507L83.1149 127.54C86.4366 130.862 91.8221 130.862 95.1438 127.54C98.4655 124.219 98.4655 118.833 95.1438 115.511L81.1101 101.478C77.7633 98.2172 72.428 98.2172 69.0812 101.478Z" fill="#7D4AFF"/>
</g>
</g>
</svg>
