<svg width="34" height="34" viewBox="0 0 34 34" fill="none" xmlns="http://www.w3.org/2000/svg">
<path fill-rule="evenodd" clip-rule="evenodd" d="M6.47618 0H27.5238C31.1005 0 34 2.89949 34 6.47618V27.5238C34 31.1005 31.1005 34 27.5238 34H6.47618C2.89949 34 0 31.1005 0 27.5238V6.47618C0 2.89949 2.89949 0 6.47618 0ZM25.9047 19.0238C26.5754 19.0238 27.119 18.4801 27.119 17.8095V12.8876C27.1103 12.2206 26.5717 11.682 25.9047 11.6733H21.0476C20.377 11.6733 19.8333 12.217 19.8333 12.8876C19.8333 13.5582 20.377 14.1019 21.0476 14.1019H22.4885L16.7247 19.8657L13.4867 16.6276C12.6274 15.7713 11.2374 15.7713 10.3781 16.6276L6.21714 20.7886C5.74364 21.2626 5.74364 22.0307 6.21714 22.5047C6.44361 22.7341 6.75293 22.8624 7.07523 22.8609C7.39789 22.8643 7.70791 22.7356 7.93332 22.5047L11.9971 18.619L15.2352 21.8571C16.0945 22.7134 17.4845 22.7134 18.3438 21.8571L24.6904 15.4619V17.8095C24.6904 18.4801 25.2341 19.0238 25.9047 19.0238Z" fill="white"/>
</svg>
