<svg width="35" height="33" viewBox="0 0 35 33" fill="none" xmlns="http://www.w3.org/2000/svg">
<path fill-rule="evenodd" clip-rule="evenodd" d="M34.7529 8.51437C34.745 8.54762 34.745 8.58226 34.7529 8.61552C34.7638 8.81234 34.7582 9.00972 34.736 9.2056V9.42477C34.7189 10.3071 34.3905 11.1551 33.8088 11.8188L23.6932 23.3674L18.9389 28.7286C18.5906 29.1079 18.1728 29.417 17.7082 29.639C17.4929 29.7426 17.2667 29.8217 17.0338 29.875H16.9158L16.3257 29.9593H16.1234C15.9496 29.976 15.7746 29.976 15.6008 29.9593H15.3479L14.8927 29.8413L14.6398 29.7233L14.2183 29.5041C14.147 29.459 14.0793 29.4083 14.016 29.3524L13.6957 29.1332L11.3691 31.4598C10.5743 32.2165 9.35867 32.3149 8.45247 31.6958C8.03061 32.1244 7.47982 32.4028 6.88456 32.4882L2.65289 32.9771C2.13296 33.063 1.60277 32.9008 1.21985 32.5388L0.444329 31.7633C-0.265311 30.8309 -0.10876 29.5039 0.798373 28.7623L3.15867 26.402C2.50648 25.4781 2.61318 24.219 3.41156 23.4179L5.73813 21.0914C5.65938 20.9886 5.58622 20.8817 5.51896 20.771C5.46308 20.7078 5.41234 20.6401 5.36723 20.5687L5.03004 19.8944C4.89517 19.7426 4.89517 19.5909 4.89517 19.4223V19.1863C4.8779 19.0069 4.8779 18.8262 4.89517 18.6468V17.8375C4.90555 17.8104 4.90555 17.7804 4.89517 17.7532C5.06739 17.0047 5.47512 16.331 6.05846 15.8313L22.9683 0.944565C24.4665 -0.377217 26.735 -0.303324 28.1441 1.11316L33.7245 6.64299C34.241 7.15427 34.5982 7.80429 34.7529 8.51437ZM18.9895 17.5846L26.5762 9.99798C26.8172 9.76315 26.9531 9.44093 26.9531 9.10444C26.9531 8.76795 26.8172 8.44573 26.5762 8.2109C26.0825 7.71785 25.2827 7.71785 24.7891 8.2109L17.2024 15.7976C16.7094 16.2912 16.7094 17.091 17.2024 17.5846C17.4383 17.8234 17.7603 17.9571 18.096 17.9555C18.4327 17.9631 18.7571 17.8285 18.9895 17.5846Z" fill="white"/>
</svg>
