<svg width="240" height="240" viewBox="0 0 240 240" fill="none" xmlns="http://www.w3.org/2000/svg">
<g opacity="0.4">
<g opacity="0.4">
<path fill-rule="evenodd" clip-rule="evenodd" d="M209.499 79.0096H207.045V67.3219C207.045 50.1972 193.197 36.2968 176.072 36.2324H40.4104C32.083 36.2623 24.1157 39.6316 18.2936 45.5856C12.4715 51.5395 9.28129 59.5803 9.43788 67.9063V145.864C9.43788 154.078 12.701 161.956 18.5095 167.765C24.318 173.573 32.196 176.836 40.4104 176.836H142.645V193.082H51.6307C46.7895 193.082 42.8649 197.007 42.8649 201.848C42.8649 206.689 46.7895 210.614 51.6307 210.614H142.645V212.601C142.709 224.903 152.666 234.861 164.969 234.924H209.499C221.782 234.86 231.706 224.884 231.706 212.601V101.333C231.737 95.4234 229.411 89.745 225.243 85.5551C221.075 81.3652 215.409 79.0096 209.499 79.0096ZM40.4104 159.305C33.0137 159.241 27.033 153.26 26.9695 145.864V67.9063C26.9692 60.4639 32.9684 54.4126 40.4104 54.3485H176.072C179.657 54.3483 183.094 55.7804 185.618 58.3264C188.142 60.8724 189.544 64.3213 189.513 67.9063V79.594H164.969C152.666 79.6579 142.709 89.6152 142.645 101.918V160.356L40.4104 159.305ZM209.499 217.393C212.1 217.329 214.175 215.202 214.174 212.601V101.333C214.206 100.073 213.727 98.8538 212.847 97.9516C211.967 97.0495 210.759 96.5409 209.499 96.5413H164.969C162.348 96.603 160.238 98.7127 160.177 101.333V212.601C160.238 215.221 162.348 217.331 164.969 217.393H209.499Z" fill="#7D4AFF"/>
<path d="M198.279 103.671H176.072C171.231 103.671 167.306 107.595 167.306 112.437C167.306 117.278 171.231 121.202 176.072 121.202H198.279C203.12 121.202 207.045 117.278 207.045 112.437C207.045 107.595 203.12 103.671 198.279 103.671Z" fill="#7D4AFF"/>
</g>
</g>
</svg>
