<svg width="23" height="23" viewBox="0 0 23 23" fill="none" xmlns="http://www.w3.org/2000/svg">
<path d="M7.87803 5.00645H8.26827L8.65851 4.90731L10.0731 5.25429C9.29266 14.7715 6.41461 20.1002 1.43902 22.9751C1.14634 22.4051 0.487803 21.5376 0 21.1163C4.43901 18.8609 7.1951 13.5571 7.87803 5.47735V5.00645ZM11.0244 1.68534H20.5609V3.8168H11.0244V1.68534ZM9.97558 10.3847H22.9999V12.6153H9.97558V10.3847ZM15.4146 7.73274H17.8048V20.348C17.8048 21.612 17.5121 22.2564 16.6341 22.6034C15.7561 22.9504 14.5122 22.9999 12.5853 22.9999C12.4634 22.3555 12.0975 21.3889 11.7805 20.7693C13.1219 20.7941 14.5122 20.7941 14.9024 20.7941C15.2926 20.7941 15.4146 20.6702 15.4146 20.3232V7.73274ZM19.6829 1.68534H20.2926L20.8292 1.53663L22.4146 2.7015C20.9755 4.90731 18.8536 7.48489 16.756 9.07109C16.4634 8.64976 15.8048 8.05493 15.4146 7.73274C17.0731 6.32002 18.8536 3.84158 19.6829 2.18103V1.68534ZM0.390243 5.00645H8.51217V7.16269H0.390243V5.00645ZM0.804876 13.5571L2.19512 11.8469C5.14633 13.9041 8.80485 16.8038 10.3658 18.9105L8.82924 20.918C7.29266 18.737 3.75609 15.6637 0.804876 13.5571ZM0.804876 13.5571C1.90243 10.1368 3.14633 4.38684 3.58536 0L5.87803 0.173492C5.26828 4.80817 3.9756 10.6573 2.87804 14.375L0.804876 13.5571Z" fill="#4F46E5"/>
</svg>
