<svg width="36" height="49" viewBox="0 0 36 49" fill="none" xmlns="http://www.w3.org/2000/svg">
<path d="M18.1568 48.7634C14.2715 48.8479 10.7991 47.7692 7.72894 45.6486C3.71175 42.8741 1.20587 39.0852 0.284819 34.32C-0.449215 30.5248 0.291305 26.9504 1.8664 23.487C3.83607 19.1582 6.44573 15.1929 9.17323 11.3005C11.5742 7.87401 14.1504 4.57328 16.8184 1.34122C17.1352 0.957682 17.4757 0.591051 17.7643 0.189553C17.9762 -0.105231 18.0768 -0.0217615 18.2703 0.205402C20.7362 3.09936 23.0734 6.09052 25.3036 9.15986C28.1403 13.0639 30.8559 17.043 33.085 21.3168C34.2061 23.4669 35.1963 25.6699 35.6633 28.062C36.4536 32.1213 35.8579 35.981 33.8212 39.5945C31.5272 43.6633 28.0884 46.4453 23.5934 47.9488C21.8107 48.5468 19.9643 48.8352 18.1568 48.7634ZM14.7631 11.1024C14.6863 11.0393 14.5569 11.0838 14.5569 11.1832C14.5536 20.387 14.5547 29.5908 14.5417 38.7946C14.5417 39.1824 14.6823 39.2553 15.0412 39.2542C19.1103 39.2437 23.1793 39.2405 27.2495 39.2553C27.6657 39.2564 27.7619 39.1275 27.7522 38.7429C27.7079 37.1073 27.5608 35.4844 27.3306 33.8636C26.7954 30.0927 25.682 26.4929 24.0042 23.0623C22.5685 20.1282 20.7448 17.436 18.6043 14.9478C17.433 13.5907 16.2058 12.2864 14.7631 11.1024ZM13.0163 21.1355C13.0164 21.0945 12.9841 21.0608 12.9431 21.059C12.9019 21.0572 12.8667 21.0883 12.8633 21.1294C12.7405 22.607 12.5392 24.0753 12.2531 25.5294C11.358 30.08 9.99807 34.4965 8.19055 38.7798C8.02947 39.1613 8.08677 39.2616 8.51054 39.2564C9.8424 39.2394 11.1753 39.2352 12.5072 39.2616C12.9374 39.2701 13.0466 39.1433 13.0456 38.7291C13.025 33.1155 13.0228 27.502 13.0174 21.8884C13.0155 21.6372 13.0162 21.386 13.0163 21.1355ZM6.54843 40.8211C6.21113 40.823 6.07561 41.1144 6.30207 41.3643C6.4306 41.5062 6.56471 41.642 6.66951 41.7985C6.92572 42.182 7.25112 42.331 7.74624 42.3299C14.3731 42.3109 21.001 42.2951 27.6279 42.3415C28.6051 42.3489 29.283 42.1038 29.7435 41.2807C29.817 41.1487 30.044 41.0589 29.9554 40.893C29.8721 40.7366 29.6613 40.8222 29.5089 40.8222C21.855 40.818 14.2012 40.818 6.54843 40.8211Z" fill="url(#paint0_linear_181482_7277)"/>
<defs>
<linearGradient id="paint0_linear_181482_7277" x1="21.6908" y1="48.7744" x2="18.7079" y2="2.64522" gradientUnits="userSpaceOnUse">
<stop stop-color="#4F46E5"/>
<stop offset="1" stop-color="#6B90FF"/>
</linearGradient>
</defs>
</svg>
