<svg width="23" height="21" viewBox="0 0 23 21" fill="none" xmlns="http://www.w3.org/2000/svg">
<path d="M9.82723 1.45497H12.1178V20.7333H9.82723V1.45497ZM3.96538 9.60278L5.29538 8.34181C6.62538 9.1178 8.4726 10.2333 9.45779 10.9608L8.0539 12.3915C7.1426 11.664 5.32001 10.4515 3.96538 9.60278ZM3.76834 14.3072L5.12297 13.0462C6.4776 13.8949 8.39872 15.1802 9.3839 15.9319L7.98001 17.3869C7.04409 16.5866 5.1476 15.2529 3.76834 14.3072ZM12.7335 9.60278L14.0635 8.31756C15.4182 9.0693 17.3885 10.1848 18.3737 10.888L17.0191 12.3672C16.0832 11.664 14.1621 10.4515 12.7335 9.60278ZM12.4133 14.2344L13.7434 12.9735C15.1719 13.7979 17.1669 15.0347 18.2013 15.8106L16.8221 17.2899C15.8369 16.4896 13.8665 15.1802 12.4133 14.2344ZM1.10834 5.04389H19.8022V7.20209H3.34963V21H1.10834V5.04389ZM18.8663 5.04389H21.1569V18.3811C21.1569 19.5693 20.8613 20.1755 19.9993 20.5393C19.1372 20.8788 17.758 20.903 15.7876 20.903C15.6645 20.321 15.3196 19.3996 14.9995 18.8418C16.428 18.8903 17.9058 18.8903 18.2998 18.8661C18.7432 18.8418 18.8663 18.7448 18.8663 18.3568V5.04389ZM0 0H22.1667V2.2552H0V0Z" fill="#4F46E5"/>
</svg>
