<svg width="30" height="30" viewBox="0 0 30 30" fill="none" xmlns="http://www.w3.org/2000/svg">
<path fill-rule="evenodd" clip-rule="evenodd" d="M1.11177 12.9217C-0.370591 14.4041 -0.370591 16.8075 1.11177 18.2899L5.40627 22.5844C6.88863 24.0668 9.29202 24.0668 10.7744 22.5844C11.6525 21.7063 12.0104 20.505 11.8482 19.3634L13.3244 17.8872L22.5537 28.5364C24.1657 30.3965 27.0173 30.4982 28.7577 28.7577C30.4982 27.0173 30.3965 24.1656 28.5365 22.5536L17.8874 13.3242L19.3632 11.8484C20.5047 12.0106 21.706 11.6526 22.5841 10.7745C24.0665 9.29215 24.0665 6.88873 22.5841 5.40635L18.2896 1.11179C16.8072 -0.370597 14.4038 -0.370596 12.9215 1.11179C12.0433 1.98996 11.6854 3.19136 11.8477 4.33303L4.33297 11.8479C3.19132 11.6856 1.98993 12.0435 1.11177 12.9217ZM16.6792 10.2378L10.2376 16.6795L7.01678 13.4586L13.4584 7.01687L16.6792 10.2378ZM3.25902 16.1426C2.96255 15.8461 2.96255 15.3654 3.25902 15.0689C3.55549 14.7725 4.03617 14.7725 4.33264 15.0689L8.62714 19.3635C8.92361 19.66 8.92361 20.1407 8.62714 20.4371C8.33067 20.7336 7.84999 20.7336 7.55352 20.4371L3.25902 16.1426ZM15.0687 4.33271C14.7723 4.03623 14.7723 3.55554 15.0687 3.25907C15.3652 2.96259 15.8459 2.96259 16.1424 3.25907L20.4369 7.55362C20.7333 7.8501 20.7333 8.33079 20.4369 8.62726C20.1404 8.92374 19.6597 8.92374 19.3632 8.62726L15.0687 4.33271ZM24.8484 26.5476L15.7264 16.022L16.0222 15.7262L26.5476 24.8484C27.0759 25.3062 27.1048 26.1161 26.6105 26.6105C26.1162 27.1048 25.3063 27.0759 24.8484 26.5476Z" fill="#4F46E5"/>
</svg>
