<svg width="24" height="24" viewBox="0 0 24 24" fill="none" xmlns="http://www.w3.org/2000/svg">
<path d="M12 0C11.008 0 9.99735 0.190651 9.20801 0.583984L0.749329 4.79199C0.241329 5.06932 0 5.51733 0 6V15.9173C0 17.5186 1.10401 19.2853 2.54134 20L9.54135 23.4586C10.9413 24.1533 13.0587 24.1546 14.4587 23.4586L21.4587 20C22.908 19.28 24 17.532 24 15.9173V6C24 5.51733 23.756 5.02932 23.2507 4.79199L14.792 0.583984C14.0027 0.190651 12.992 0 12 0ZM10.416 2.95866C11.248 2.54532 12.752 2.54532 13.584 2.95866L19.6667 6L13.584 8.99999C12.752 9.41333 11.248 9.41333 10.416 8.99999C10.3227 8.95333 5.21867 6.44 4.33334 6L10.416 2.95866ZM2.66667 8.16666C3.896 8.77866 4.92401 9.25865 6.25068 9.91731C7.35334 10.464 8.83068 11.2 9.20801 11.3747C9.78668 11.6427 10.1693 11.7773 10.6667 11.8747V21.0413L3.70801 17.584C3.17734 17.32 2.66667 16.5026 2.66667 15.9173V8.16666ZM21.3333 8.16666V15.9173C21.3333 16.516 20.7934 17.3546 20.2507 17.6253L13.3333 21.0413V11.8747C13.8307 11.7773 14.3387 11.6213 14.7493 11.416L21.3333 8.16666Z" fill="#4F46E5"/>
</svg>
