<svg width="25" height="25" viewBox="0 0 25 25" fill="none" xmlns="http://www.w3.org/2000/svg">
<path fill-rule="evenodd" clip-rule="evenodd" d="M5.16319 3.2198C4.62654 2.68315 3.75645 2.68315 3.2198 3.2198C2.68315 3.75645 2.68315 4.62653 3.2198 5.16319L6.13488 8.07827C6.67153 8.61492 7.54162 8.61492 8.07827 8.07827C8.61492 7.54162 8.61492 6.67153 8.07827 6.13488L5.16319 3.2198ZM11.965 10.0217C11.4284 9.48501 10.5583 9.48501 10.0217 10.0217C9.48501 10.5583 9.48501 11.4284 10.0217 11.965L22.6537 24.5971C23.1903 25.1337 24.0604 25.1337 24.5971 24.5971C25.1337 24.0604 25.1337 23.1903 24.5971 22.6537L11.965 10.0217ZM18.7669 3.2198C19.3036 3.75645 19.3036 4.62653 18.7669 5.16319L15.8518 8.07827C15.3152 8.61492 14.4451 8.61492 13.9084 8.07827C13.3718 7.54162 13.3718 6.67153 13.9084 6.13488L16.8235 3.2198C17.3602 2.68315 18.2303 2.68315 18.7669 3.2198ZM8.07827 15.8518C8.61492 15.3152 8.61492 14.4451 8.07827 13.9084C7.54162 13.3718 6.67153 13.3718 6.13488 13.9084L3.2198 16.8235C2.68315 17.3602 2.68315 18.2303 3.2198 18.7669C3.75645 19.3036 4.62654 19.3036 5.16319 18.7669L8.07827 15.8518ZM21.9867 10.9934C21.9867 11.7523 21.3715 12.3675 20.6126 12.3675H16.49C15.7311 12.3675 15.1158 11.7523 15.1158 10.9934C15.1158 10.2344 15.7311 9.61917 16.49 9.61917L20.6126 9.61917C21.3715 9.61917 21.9867 10.2344 21.9867 10.9934ZM5.49673 12.3675C6.25567 12.3675 6.87091 11.7523 6.87091 10.9934C6.87092 10.2344 6.25567 9.61917 5.49673 9.61917L1.37418 9.61917C0.615243 9.61917 1.15835e-07 10.2344 0 10.9934C0 11.7523 0.615243 12.3675 1.37418 12.3675H5.49673ZM10.9934 21.9867C10.2344 21.9867 9.61917 21.3715 9.61917 20.6126L9.61917 16.49C9.61917 15.7311 10.2344 15.1158 10.9934 15.1158C11.7523 15.1158 12.3675 15.7311 12.3675 16.49L12.3675 20.6126C12.3675 21.3715 11.7523 21.9867 10.9934 21.9867ZM9.61917 5.49673C9.61917 6.25567 10.2344 6.87092 10.9934 6.87091C11.7523 6.87092 12.3675 6.25567 12.3675 5.49673V1.37418C12.3675 0.615243 11.7523 -4.63339e-07 10.9934 0C10.2344 -4.63339e-07 9.61917 0.615243 9.61917 1.37418L9.61917 5.49673Z" fill="#4F46E5"/>
</svg>
