<svg width="24" height="24" viewBox="0 0 24 24" fill="none" xmlns="http://www.w3.org/2000/svg">
<path fill-rule="evenodd" clip-rule="evenodd" d="M2.66667 0C1.19391 0 0 1.19391 0 2.66667V21.3333C0 22.8061 1.19391 24 2.66667 24H9.33333C10.8061 24 12 22.8061 12 21.3333V12H21.3333C22.8061 12 24 10.8061 24 9.33333V2.66667C24 1.19391 22.8061 0 21.3333 0H2.66667ZM5.33354 2.66667V4C5.33354 4.73638 5.93049 5.33333 6.66687 5.33333C7.40325 5.33333 8.0002 4.73638 8.0002 4V2.66667H10.6667V4C10.6667 4.73638 11.2636 5.33333 12 5.33333C12.7364 5.33333 13.3333 4.73638 13.3333 4V2.66667H15.9998V4C15.9998 4.73638 16.5968 5.33333 17.3331 5.33333C18.0695 5.33333 18.6665 4.73638 18.6665 4V2.66667H21.3333V9.33333H11.3333C10.2288 9.33333 9.33333 10.2288 9.33333 11.3333V21.3333H2.66667V18.6667H4C4.73638 18.6667 5.33333 18.0697 5.33333 17.3333C5.33333 16.597 4.73638 16 4 16H2.66667V13.3333H4C4.73638 13.3333 5.33333 12.7364 5.33333 12C5.33333 11.2636 4.73638 10.6667 4 10.6667H2.66667V8H4C4.73638 8 5.33333 7.40305 5.33333 6.66667C5.33333 5.93029 4.73638 5.33333 4 5.33333H2.66667V2.66667H5.33354Z" fill="#4F46E5"/>
</svg>
