<svg width="24" height="24" viewBox="0 0 24 24" fill="none" xmlns="http://www.w3.org/2000/svg">
<path d="M8.06716 16.7142C7.54646 17.2349 6.70224 17.2349 6.18154 16.7142C5.66084 16.1935 5.66084 15.3493 6.18154 14.8286L9.00997 12.0002L6.18154 9.17174C5.66084 8.65104 5.66084 7.80682 6.18154 7.28612C6.70224 6.76542 7.54646 6.76542 8.06716 7.28612L11.8384 11.0574C12.3591 11.5781 12.3591 12.4223 11.8384 12.943L8.06716 16.7142Z" fill="#4F46E5"/>
<path d="M14.6668 14.6668C13.9304 14.6668 13.3335 15.2638 13.3335 16.0002C13.3335 16.7365 13.9304 17.3335 14.6668 17.3335H17.3335C18.0699 17.3335 18.6668 16.7365 18.6668 16.0002C18.6668 15.2638 18.0699 14.6668 17.3335 14.6668H14.6668Z" fill="#4F46E5"/>
<path fill-rule="evenodd" clip-rule="evenodd" d="M0 2.66667C0 1.19391 1.19391 0 2.66667 0H21.3333C22.8061 0 24 1.19391 24 2.66667V21.3333C24 22.8061 22.8061 24 21.3333 24H2.66667C1.19391 24 0 22.8061 0 21.3333V2.66667ZM21.3333 2.66667H2.66667V21.3333H21.3333V2.66667Z" fill="#4F46E5"/>
</svg>
