<svg width="362" height="220" viewBox="0 0 362 220" fill="none" xmlns="http://www.w3.org/2000/svg">
<path d="M356.279 161.853C353.383 155.071 352.772 147.255 349.562 140.781C346.278 134.273 345.118 128.757 336.822 122.898C336.822 122.898 336.196 123.809 335.227 125.196C334.247 126.556 332.95 128.381 331.661 130.187C330.298 131.959 328.946 133.759 327.929 135.102C326.912 136.445 326.22 137.304 326.22 137.304C303.498 160.593 277.307 178.848 249.652 192.215C221.952 205.583 192.717 214.122 163.299 217.745C133.908 221.358 104.293 219.993 76.3245 213.35C48.3578 206.752 22.1672 194.733 4.69413e-06 178.248C26.5315 189.497 54.717 194.342 82.1211 193.662C109.562 192.999 136.263 186.918 160.779 176.773C185.295 166.627 207.701 152.45 226.632 135.313C236.094 126.754 244.672 117.477 252.219 107.662C259.747 97.839 266.336 87.4749 271.52 76.9674C265.076 74.9353 258.721 72.6507 252.534 70.239C246.271 67.7476 240.227 65.0626 234.231 62.2188C251.713 61.3315 270.556 55.9616 288.68 47.0361C306.782 38.0101 332.124 17.6625 347.126 0.000547387C352.031 21.5435 354.006 38.0764 360.403 78.9587C363.287 105.129 362.466 132.884 356.279 161.853Z" fill="url(#paint0_linear_181518_1254)"/>
<defs>
<linearGradient id="paint0_linear_181518_1254" x1="173.228" y1="262.018" x2="279.616" y2="-2.42305" gradientUnits="userSpaceOnUse">
<stop stop-color="#6D53FF"/>
<stop offset="1" stop-color="#BD93FF"/>
</linearGradient>
</defs>
</svg>
