<svg width="36" height="35" viewBox="0 0 36 35" fill="none" xmlns="http://www.w3.org/2000/svg">
<path d="M19.3479 6.06923C19.3384 6.79185 18.7549 7.37536 18.0323 7.38481C17.3097 7.37536 16.7261 6.79185 16.7167 6.06923V1.31558C16.7167 0.589007 17.3057 0 18.0323 0C18.7589 0 19.3479 0.589007 19.3479 1.31558V6.06923Z" fill="white"/>
<path fill-rule="evenodd" clip-rule="evenodd" d="M18.1551 8.99859H18.0323C14.6818 8.93786 11.5896 10.7916 10.0641 13.7753C8.53873 16.759 8.84679 20.3511 10.8579 23.0315C12.61 25.3759 13.5851 28.2094 13.647 31.1355C13.9269 33.3442 15.8059 35 18.0323 35C20.2587 35 22.1376 33.3442 22.4175 31.1355C22.3246 28.3272 23.1976 25.572 24.8908 23.3297C26.086 21.8316 26.7575 19.9832 26.8028 18.0673C26.863 13.1969 23.0228 9.16979 18.1551 8.99859ZM18.0323 32.8896C17.0635 32.8896 16.2782 32.1042 16.2782 31.1355V30.6794H19.8916V31.1706C19.8829 31.6485 19.6796 32.1022 19.3286 32.4266C18.9776 32.7511 18.5094 32.9183 18.0323 32.8896Z" fill="white"/>
<path d="M18.0323 8.99859L18.12 11.6298C20.4854 11.6652 22.6253 13.0417 23.6383 15.1795C24.6514 17.3174 24.3616 19.8452 22.8912 21.6984C21.471 23.5355 20.5198 25.6908 20.1197 27.9781H15.9098C15.3822 25.6196 14.3795 23.3933 12.9629 21.4352C11.6169 19.5403 11.4418 17.0523 12.5093 14.9876C13.5767 12.9228 15.7079 11.6271 18.0323 11.6298V8.99859Z" fill="white"/>
<path d="M30.8548 5.0343C30.3412 4.5213 29.5091 4.5213 28.9955 5.0343L25.7153 8.29695C25.2096 8.82039 25.2096 9.6504 25.7153 10.1738C26.2457 10.662 27.0618 10.662 27.5922 10.1738L30.8548 6.89366C31.3678 6.38002 31.3678 5.54793 30.8548 5.0343Z" fill="white"/>
<path d="M29.8199 15.8396H34.4332C35.1598 15.8396 35.7488 16.4286 35.7488 17.1552C35.7488 17.8818 35.1598 18.4708 34.4332 18.4708H29.8199C29.0933 18.4708 28.5043 17.8818 28.5043 17.1552C28.5043 16.4286 29.0933 15.8396 29.8199 15.8396Z" fill="white"/>
<path d="M5.9289 15.8396H1.31558C0.589007 15.8396 0 16.4286 0 17.1552C0 17.8818 0.589007 18.4708 1.31558 18.4708H5.9289C6.65547 18.4708 7.24448 17.8818 7.24448 17.1552C7.24448 16.4286 6.65547 15.8396 5.9289 15.8396Z" fill="white"/>
<path d="M10.5499 9.2354C10.5499 9.58834 10.4081 9.92649 10.1563 10.1738C9.90595 10.4126 9.57258 10.5447 9.22663 10.5422C8.88102 10.5429 8.5483 10.4111 8.29695 10.1738L5.0343 6.89366C4.68233 6.56569 4.53745 6.07176 4.65649 5.60563C4.77553 5.13951 5.13951 4.77553 5.60564 4.65649C6.07176 4.53745 6.56569 4.68233 6.89366 5.0343L10.1563 8.29695C10.4081 8.5443 10.5499 8.88245 10.5499 9.2354Z" fill="white"/>
</svg>
