<svg width="23" height="23" viewBox="0 0 23 23" fill="none" xmlns="http://www.w3.org/2000/svg">
<path d="M7.87805 5.00646H8.26829L8.65854 4.90733L10.0732 5.25431C9.29268 14.7715 6.41463 20.1002 1.43902 22.9752C1.14634 22.4052 0.487805 21.5377 0 21.1164C4.43902 18.861 7.19512 13.5571 7.87805 5.47737V5.00646ZM11.0244 1.68534H20.561V3.81681H11.0244V1.68534ZM9.97561 10.3847H23V12.6153H9.97561V10.3847ZM15.4146 7.73276H17.8049V20.3481C17.8049 21.6121 17.5122 22.2565 16.6341 22.6034C15.7561 22.9504 14.5122 23 12.5854 23C12.4634 22.3556 12.0976 21.389 11.7805 20.7694C13.1219 20.7942 14.5122 20.7942 14.9024 20.7942C15.2927 20.7942 15.4146 20.6703 15.4146 20.3233V7.73276ZM19.6829 1.68534H20.2927L20.8293 1.53664L22.4146 2.70151C20.9756 4.90733 18.8537 7.48491 16.7561 9.07112C16.4634 8.64978 15.8049 8.05496 15.4146 7.73276C17.0732 6.32004 18.8537 3.84159 19.6829 2.18103V1.68534ZM0.390244 5.00646H8.51219V7.16271H0.390244V5.00646ZM0.804878 13.5571L2.19512 11.847C5.14634 13.9041 8.80488 16.8039 10.3659 18.9106L8.82927 20.9181C7.29268 18.7371 3.7561 15.6638 0.804878 13.5571ZM0.804878 13.5571C1.90244 10.1369 3.14634 4.38685 3.58537 0L5.87805 0.173492C5.26829 4.80819 3.97561 10.6573 2.87805 14.375L0.804878 13.5571Z" fill="#4F46E5"/>
</svg>
