<svg width="23" height="21" viewBox="0 0 23 21" fill="none" xmlns="http://www.w3.org/2000/svg">
<path d="M9.82689 1.45492H12.1174V20.7326H9.82689V1.45492ZM3.96524 9.60245L5.29519 8.34152C6.62515 9.11748 8.47231 10.2329 9.45746 10.9604L8.05362 12.391C7.14235 11.6636 5.31982 10.4511 3.96524 9.60245ZM3.76821 14.3067L5.12279 13.0457C6.47737 13.8945 8.39842 15.1796 9.38357 15.9313L7.97973 17.3862C7.04384 16.586 5.14742 15.2524 3.76821 14.3067ZM12.7331 9.60245L14.063 8.31727C15.4176 9.06898 17.3879 10.1844 18.3731 10.8876L17.0185 12.3668C16.0826 11.6636 14.1616 10.4511 12.7331 9.60245ZM12.4129 14.2339L13.7429 12.973C15.1713 13.7975 17.1663 15.0341 18.2007 15.8101L16.8215 17.2893C15.8363 16.4891 13.866 15.1796 12.4129 14.2339ZM1.1083 5.04371H19.8016V7.20184H3.34952V20.9993H1.1083V5.04371ZM18.8657 5.04371H21.1561V18.3804C21.1561 19.5686 20.8606 20.1748 19.9986 20.5386C19.1366 20.878 17.7574 20.9023 15.7871 20.9023C15.6639 20.3203 15.3191 19.3989 14.9989 18.8412C16.4274 18.8897 17.9051 18.8897 18.2992 18.8654C18.7425 18.8412 18.8657 18.7442 18.8657 18.3562V5.04371ZM0 0H22.1659V2.25512H0V0Z" fill="#4F46E5"/>
</svg>
